<?xml version="1.0" encoding="utf-8"?>
<!-- Uploaded to: SVG Repo, www.svgrepo.com, Generator: SVG Repo Mixer Tools -->
<svg fill="#000000" width="800px" height="800px" viewBox="0 0 32 32" version="1.1" xmlns="http://www.w3.org/2000/svg">
<title>clouds</title>
<path d="M31.168 23.58c-0.24-2.981-2.277-5.429-5.018-6.273l-0.051-0.013c0.050-0.23 0.079-0.495 0.079-0.767 0-1.080-0.456-2.054-1.186-2.738l-0.002-0.002c-0.908-0.908-2.162-1.47-3.548-1.47-0.833 0-1.619 0.203-2.31 0.563l0.028-0.013c-1.354-1.435-3.269-2.328-5.392-2.328-0.14 0-0.28 0.004-0.418 0.012l0.019-0.001c-3.461 0.034-6.494 1.838-8.24 4.548l-0.024 0.039c-0.462 0.798-0.734 1.756-0.734 2.777 0 0.549 0.079 1.080 0.226 1.582l-0.010-0.040c-2.281 1.003-3.844 3.243-3.844 5.848 0 0.108 0.003 0.216 0.008 0.323l-0.001-0.015c-0.001 0.040-0.001 0.086-0.001 0.133 0 1.375 0.442 2.648 1.192 3.682l-0.013-0.018c0.864 1.125 2.21 1.843 3.724 1.843 0.036 0 0.071-0 0.107-0.001l-0.005 0 20.349-0.012c1.841-0.223 3.389-1.305 4.249-2.827l0.015-0.028c0.564-1.045 0.896-2.288 0.896-3.607 0-0.422-0.034-0.836-0.099-1.24l0.006 0.044zM25.932 28.75h-20.179c-0.034 0.002-0.075 0.003-0.115 0.003-0.701 0-1.324-0.335-1.717-0.853l-0.004-0.005c-0.419-0.601-0.669-1.348-0.669-2.152 0-0.046 0.001-0.092 0.002-0.138l-0 0.007c0-1.588 0.829-3.949 3.114-3.949 0.69-0 1.25-0.56 1.25-1.25 0-0.24-0.067-0.464-0.184-0.654l0.003 0.005c-0.352-0.509-0.562-1.14-0.562-1.82 0-0.59 0.158-1.144 0.435-1.62l-0.008 0.015c1.355-1.972 3.587-3.258 6.12-3.291l0.005-0c0.046-0.001 0.093-0.001 0.142-0.001 0.068-0.003 0.148-0.005 0.228-0.005 1.689 0 3.174 0.871 4.031 2.189l0.011 0.019c0.196 0.321 0.526 0.544 0.91 0.591l0.006 0.001c0.049 0.007 0.105 0.011 0.162 0.011 0.341 0 0.649-0.139 0.871-0.363l0-0c0.435-0.425 1.030-0.687 1.687-0.687 0.686 0 1.305 0.286 1.744 0.745l0.001 0.001c0.293 0.233 0.479 0.59 0.479 0.991 0 0.421-0.206 0.794-0.522 1.023l-0.004 0.003c-0.228 0.227-0.369 0.54-0.369 0.887 0 0.691 0.56 1.25 1.25 1.25 0.060 0 0.119-0.004 0.176-0.012l-0.007 0.001c2.615-0.355 4.16 1.941 4.473 4.229 0.221 1.621-0.146 4.463-2.76 4.832zM2.78 17.25c0.69-0 1.249-0.56 1.249-1.25 0-0.289-0.098-0.556-0.263-0.767l0.002 0.003c-0.327-0.532-0.521-1.176-0.521-1.865 0-0.594 0.144-1.154 0.399-1.648l-0.009 0.020c0.331-0.788 1.092-1.334 1.982-1.345h0.001c0.69-0 1.25-0.56 1.25-1.25 0-0.24-0.067-0.464-0.184-0.654l0.003 0.005c-0.274-0.39-0.438-0.876-0.438-1.399 0-0.453 0.123-0.877 0.337-1.241l-0.006 0.011c1.087-1.573 2.872-2.596 4.897-2.619l0.004-0c0.092-0.008 0.198-0.013 0.306-0.013 1.324 0 2.488 0.686 3.156 1.721l0.009 0.015c0.223 0.363 0.618 0.601 1.069 0.601 0.343 0 0.654-0.138 0.88-0.362l-0 0c0.297-0.316 0.718-0.513 1.185-0.513 0.048 0 0.096 0.002 0.142 0.006l-0.006-0c0.48 0.037 0.907 0.242 1.227 0.555l-0-0c0.18 0.163 0.301 0.387 0.332 0.64l0 0.005c-0.017 0.293-0.157 0.55-0.367 0.724l-0.002 0.001c-0.229 0.226-0.371 0.541-0.371 0.888 0 0.201 0.048 0.391 0.132 0.56l-0.003-0.007c0.213 0.416 0.638 0.696 1.129 0.696 0.057 0 0.113-0.004 0.168-0.011l-0.006 0.001c0.125-0.022 0.27-0.034 0.417-0.034 0.595 0 1.143 0.203 1.578 0.543l-0.006-0.004c0.827 0.715 1.379 1.73 1.487 2.873l0.001 0.017c0.079 0.621 0.604 1.096 1.24 1.096 0.69 0 1.25-0.56 1.25-1.25 0-0.054-0.003-0.107-0.010-0.16l0.001 0.006c-0.19-1.847-1.096-3.452-2.432-4.555l-0.012-0.009c-0.49-0.384-1.069-0.683-1.697-0.862l-0.035-0.009c0.023-0.142 0.036-0.306 0.036-0.472 0-0.049-0.001-0.098-0.003-0.147l0 0.007c-0.056-0.905-0.448-1.709-1.052-2.296l-0.001-0.001c-0.733-0.729-1.717-1.205-2.811-1.288l-0.015-0.001c-0.088-0.007-0.191-0.010-0.295-0.010-0.664 0-1.291 0.155-1.848 0.432l0.024-0.011c-1.171-1.16-2.784-1.878-4.563-1.878-0.102 0-0.203 0.002-0.303 0.007l0.014-0.001c-2.949 0.032-5.532 1.571-7.017 3.882l-0.020 0.034c-0.4 0.692-0.637 1.522-0.637 2.408 0 0.408 0.050 0.804 0.145 1.183l-0.007-0.034c-1.111 0.476-1.987 1.325-2.486 2.386l-0.012 0.029c-0.412 0.793-0.653 1.732-0.653 2.727 0 1.269 0.393 2.447 1.064 3.417l-0.013-0.020c0.231 0.296 0.587 0.485 0.988 0.485 0.001 0 0.002 0 0.002 0h-0z"></path>
</svg>